<svg xmlns="http://www.w3.org/2000/svg" xmlns:xlink="http://www.w3.org/1999/xlink" width="373.478" height="332.529" viewBox="0 0 373.478 332.529">
  <defs>
    <clipPath id="clip-path">
      <rect id="Rectangle_21701" data-name="Rectangle 21701" width="373.478" height="332.529" fill="none"/>
    </clipPath>
    <clipPath id="clip-path-3">
      <rect id="Rectangle_21702" data-name="Rectangle 21702" width="74.868" height="99.66" fill="#fff"/>
    </clipPath>
  </defs>
  <g id="Group_42065" data-name="Group 42065" transform="translate(-331 -359)">
    <g id="Group_42039" data-name="Group 42039" transform="translate(331 359)">
      <g id="Group_42038" data-name="Group 42038">
        <g id="Group_42037" data-name="Group 42037">
          <g id="Group_40700" data-name="Group 40700">
            <g id="Group_40699" data-name="Group 40699" clip-path="url(#clip-path)">
              <path id="Path_60881" data-name="Path 60881" d="M160.542,0,80.457,48.27l26.3,243.672,71.707-86.049Z" transform="translate(195.02 0)" fill="#00126e"/>
              <path id="Path_60882" data-name="Path 60882" d="M238.062,14.1l26.3,243.672L51.7,242.842,15.437,20.963Z" transform="translate(37.417 34.172)" fill="#001a9e"/>
              <path id="Path_60883" data-name="Path 60883" d="M318.146,0,124.929,9.532,15.436,55.139,238.061,48.27Z" transform="translate(37.416 0)" fill="#00178e"/>
            </g>
          </g>
          <g id="Group_40702" data-name="Group 40702" transform="matrix(0.996, -0.087, 0.087, 0.996, 132.219, 119.887)">
            <g id="Group_40701" data-name="Group 40701" transform="translate(0 0)" clip-path="url(#clip-path-3)">
              <path id="Path_60884" data-name="Path 60884" d="M22.345,0A22.345,22.345,0,1,0,44.69,22.345,22.3,22.3,0,0,0,22.345,0M34.514,20.143l-4.616,4.2a.848.848,0,0,0-.315.944l1.259,6.085a1.727,1.727,0,0,1-2.518,1.889l-5.456-3.042a.954.954,0,0,0-1.049,0l-5.454,3.042a1.727,1.727,0,0,1-2.518-1.889L15.1,25.282a.846.846,0,0,0-.314-.944l-4.616-4.2a1.744,1.744,0,0,1,.944-3.042l6.188-.734a.913.913,0,0,0,.84-.63l2.518-5.664a1.722,1.722,0,0,1,3.148,0l2.729,5.769a1.085,1.085,0,0,0,.84.629l6.188.736A1.693,1.693,0,0,1,34.514,20.143Z" transform="translate(15.051 54.97)" fill="#fff"/>
              <path id="Path_60885" data-name="Path 60885" d="M15.366,12.93a2.52,2.52,0,0,0,2.1-1.259,2.216,2.216,0,0,0-.211-2.412L10.644.866a2.269,2.269,0,0,0-3.567,0L.468,9.259a2.253,2.253,0,0,0-.21,2.412,2.2,2.2,0,0,0,2.1,1.259H5.924V28.665a2.833,2.833,0,1,0,5.665,0V12.93Z" transform="translate(0 31.34)" fill="#fff"/>
              <path id="Path_60886" data-name="Path 60886" d="M17.254,9.259,10.644.866a2.269,2.269,0,0,0-3.567,0L.468,9.259a2.253,2.253,0,0,0-.21,2.412,2.2,2.2,0,0,0,2.1,1.259H6.028V28.665a2.833,2.833,0,1,0,5.665,0V12.93h3.672a2.515,2.515,0,0,0,2.1-1.259A1.913,1.913,0,0,0,17.254,9.259Z" transform="translate(57.069 31.234)" fill="#fff"/>
              <path id="Path_60887" data-name="Path 60887" d="M2.2,33.466l5.035-1.889.63,2.727a2.458,2.458,0,0,0,2.308,1.889h9.861A2.27,2.27,0,0,0,22.343,34.3l.629-2.727,5.141,1.889a1.648,1.648,0,0,0,2.2-1.574V27.7a7.728,7.728,0,0,0-3.567-6.3,3.727,3.727,0,0,1-1.574-2.833C24.232,7.763,18.252,2.1,15.944.314a1.277,1.277,0,0,0-1.678,0c-2.2,1.783-8.183,7.449-9.127,18.15A3.928,3.928,0,0,1,3.565,21.4,7.724,7.724,0,0,0,0,27.695v4.2A1.605,1.605,0,0,0,2.2,33.466ZM15.21,12.8a3.987,3.987,0,1,1-3.882,4.092A3.861,3.861,0,0,1,15.21,12.8Z" transform="translate(22.187 -0.001)" fill="#fff"/>
              <path id="Path_60888" data-name="Path 60888" d="M0,1.887v4.3a1.888,1.888,0,0,0,3.776,0v-4.3A1.888,1.888,0,0,0,0,1.887" transform="translate(29.528 39.026)" fill="#fff"/>
              <path id="Path_60889" data-name="Path 60889" d="M0,1.887V8.181a1.888,1.888,0,1,0,3.776,0V1.887A1.888,1.888,0,0,0,0,1.887" transform="translate(35.507 39.026)" fill="#fff"/>
              <path id="Path_60890" data-name="Path 60890" d="M0,1.887v4.3a1.888,1.888,0,0,0,3.776,0v-4.3A1.888,1.888,0,0,0,0,1.887" transform="translate(41.592 39.026)" fill="#fff"/>
            </g>
          </g>
        </g>
      </g>
    </g>
  </g>
</svg>
